# xmcd
# 
# Track frame offsets:
#     150
#     18863
#     30709
#     49956
#     63536
#     71194
#     87882
#     105211
#     125110
#     136911
#     151604
#     171225
#     200631
#     217947
#     238885
# 
# Disc length: 3532
# 
# Revision: 1
# Processed by: cddbd v1.5.2PL0 Copyright (c) Steve Scherf et al.
# Submitted via: fre:ac v1.0.27
# 
DISCID=d10dca0f
DTITLE=Jeff Lang - Prepare Me Well
DYEAR=2006
DGENRE=Blues Rock
TTITLE0=The Save
TTITLE1=The Road Is Not Your Only Friend
TTITLE2=London
TTITLE3=Molasses and Stone
TTITLE4=Whatever Makes You Happy
TTITLE5=Too Easy To Kill
TTITLE6=Mr God
TTITLE7=And All The Snow Melted
TTITLE8=Bateman's Bay
TTITLE9=Cina
TTITLE10=Ravenswood
TTITLE11=Cedar Crove
TTITLE12=Everything Is Still
TTITLE13=Prepare Me Well
TTITLE14=Rain On Troy
EXTD=
EXTT0=
EXTT1=
EXTT2=
EXTT3=
EXTT4=
EXTT5=
EXTT6=
EXTT7=
EXTT8=
EXTT9=
EXTT10=
EXTT11=
EXTT12=
EXTT13=
EXTT14=
PLAYORDER=
